<svg xmlns="http://www.w3.org/2000/svg" viewBox="0 0 85.69 132.08"><defs><style>.a{fill:#f58767;}</style></defs><path class="a" d="M84.24,101.37a19.31,19.31,0,0,0-4.06-6.8,17.79,17.79,0,0,0-6.35-4.3,23.85,23.85,0,0,0-8.44-1.51A22.25,22.25,0,0,0,55.88,91C52.6,92.68,50,95.18,40.07,108.12s-11.52,18.1-20.13,18.1c-4.06,0-7.42-1.76-9-3.77-2.64-3.33-3.33-7.51-3.33-12,0-6.41,1.65-9.69,3.37-12,1.92-2.59,5.31-3.83,9.31-3.83a10.82,10.82,0,0,1,8.64,3.92,15.5,15.5,0,0,1,2.54,5.23l6.17-4.23a19,19,0,0,0-3.09-4.73,16.9,16.9,0,0,0-6.09-4.3,21.44,21.44,0,0,0-8.2-1.76,22,22,0,0,0-8.32,1.52,18.12,18.12,0,0,0-6.39,4.3,19.32,19.32,0,0,0-4.1,6.8,28.7,28.7,0,0,0,0,18,19.77,19.77,0,0,0,4.1,6.85,17.92,17.92,0,0,0,6.39,4.34,20.78,20.78,0,0,0,8.32,1.51c3.42,0,13-.42,23.26-16C55.26,98.2,59,94.7,65.42,94.7c5.28,0,8.21,2.09,9.84,4.46s2.7,7.23,2.7,11.76-.88,8.78-3.3,11.53-4.64,3.74-9.12,3.74a11,11,0,0,1-7.81-2.74c-2.55-2.16-3.06-4.55-3.86-7.18l-6,5a22.15,22.15,0,0,0,3.24,4.88,19.73,19.73,0,0,0,14.44,5.91,21.8,21.8,0,0,0,8.3-1.51,17.55,17.55,0,0,0,6.35-4.34,19.52,19.52,0,0,0,4.06-6.85,29,29,0,0,0,0-18"/><path class="a" d="M55.84,36a25.22,25.22,0,0,0-2,1.58h0l-.17.14h0l-.07.06h0a37.5,37.5,0,0,0-10.82,15.8A37.08,37.08,0,0,0,32,37.73h0l-.07-.06h0l-.16-.14h0c-.65-.55-1.32-1.07-2-1.58V35a23.72,23.72,0,0,1,.14-3.16h0a38.2,38.2,0,0,1,.94-5.71,36.57,36.57,0,0,1,11.71-19l.29-.28.3.28a36.57,36.57,0,0,1,11.71,19,37,37,0,0,1,.94,5.71h0c.09,1,.13,2.1.13,3.16v1M43,63l.08-.34a36.88,36.88,0,0,1,9.68-17.09c.66-.66,1.37-1.31,2.1-1.94h0A36.74,36.74,0,0,1,42.94,63M30.71,43.61h0c.73.63,1.43,1.28,2.1,1.94a36.84,36.84,0,0,1,9.74,17.13l.08.34A36.82,36.82,0,0,1,30.72,43.61m52-8.58h0v-.28h0a35.81,35.81,0,0,0-.93-5.62V29H81.7a36.48,36.48,0,0,0-6.61-.1h-.28a37.69,37.69,0,0,0-14,4,37.68,37.68,0,0,0-.1-4.38h0v-.08h0v-.22h0a36.81,36.81,0,0,0-.91-5.41h0v-.1h0l0-.19h0A37.46,37.46,0,0,0,48.05,3.62h0l-.14-.12h0l-.08-.06h0a34.73,34.73,0,0,0-5-3.44h-.08L42.7.05a35.39,35.39,0,0,0-4.79,3.47h0l-.07.06h0l-.14.12h0A37.5,37.5,0,0,0,26,22.6h0v.19h0v.1h0a36.81,36.81,0,0,0-.91,5.41h0v.22h0v.08h0A37.68,37.68,0,0,0,25,33a37.69,37.69,0,0,0-14-4h-.43a36.5,36.5,0,0,0-6.61.1h-.1v.09a35.62,35.62,0,0,0-.93,5.62h0v.28h0A37.07,37.07,0,0,0,35.93,75V73.19A36.8,36.8,0,0,1,9.84,35a36.76,36.76,0,0,1,16,5.15A37,37,0,0,0,42.51,63.29l.28.14.29-.14A37,37,0,0,0,59.75,40.1a36.8,36.8,0,0,1,16-5.15A36.78,36.78,0,0,1,49.67,73.2V75A37.07,37.07,0,0,0,82.73,35.08"/></svg>